<?xml version="1.0" standalone="no"?>
<!DOCTYPE svg PUBLIC "-//W3C//DTD SVG 20010904//EN"
 "http://www.w3.org/TR/2001/REC-SVG-20010904/DTD/svg10.dtd">
<svg version="1.0" xmlns="http://www.w3.org/2000/svg"
 width="512.000000pt" height="512.000000pt" viewBox="0 0 512.000000 512.000000"
 preserveAspectRatio="xMidYMid meet">

<g transform="translate(0.000000,512.000000) scale(0.100000,-0.100000)"
fill="#000000" stroke="none">
<path d="M922 5105 c-238 -52 -441 -250 -497 -486 -13 -56 -15 -314 -15 -2059
0 -2190 -3 -2052 60 -2185 63 -131 171 -239 305 -306 148 -73 31 -69 2031 -69
1975 0 1843 -4 1884 62 19 31 20 50 20 326 0 314 -2 332 -52 364 -63 42 -141
29 -186 -30 l-27 -35 -3 -209 -4 -208 -1703 0 c-1223 0 -1719 3 -1757 11 -164
35 -285 176 -296 345 -10 161 71 298 217 368 l66 31 1820 5 c1353 4 1827 8
1846 17 14 6 38 26 52 43 l27 32 0 1951 c0 1940 0 1952 -20 1985 -41 66 93 62
-1897 61 -1491 0 -1819 -3 -1871 -14z m436 -525 c66 -40 62 52 62 -1488 l0
-1399 -23 -34 c-59 -89 -172 -86 -227 4 -20 31 -20 62 -20 1430 0 1194 2 1403
14 1432 19 44 69 75 121 75 23 0 54 -9 73 -20z"/>
</g>
</svg>
